<?xml version="1.0" encoding="utf-8"?> <!-- Generator: IcoMoon.io --> <!DOCTYPE svg PUBLIC "-//W3C//DTD SVG 1.1//EN" "http://www.w3.org/Graphics/SVG/1.1/DTD/svg11.dtd"> <svg xmlns:xlink="http://www.w3.org/1999/xlink" xmlns="http://www.w3.org/2000/svg" width="512" height="512" viewBox="0 0 512 512"><g><line stroke="#B35047" y2="512" y1="0" x2="32" x1="32"></line><line stroke="#B35047" y2="512" y1="0" x2="64" x1="64"></line><line stroke="#B35047" y2="512" y1="0" x2="96" x1="96"></line><line stroke="#B35047" y2="512" y1="0" x2="128" x1="128"></line><line stroke="#B35047" y2="512" y1="0" x2="160" x1="160"></line><line stroke="#B35047" y2="512" y1="0" x2="192" x1="192"></line><line stroke="#B35047" y2="512" y1="0" x2="224" x1="224"></line><line stroke="#B35047" y2="512" y1="0" x2="256" x1="256"></line><line stroke="#B35047" y2="512" y1="0" x2="288" x1="288"></line><line stroke="#B35047" y2="512" y1="0" x2="320" x1="320"></line><line stroke="#B35047" y2="512" y1="0" x2="352" x1="352"></line><line stroke="#B35047" y2="512" y1="0" x2="384" x1="384"></line><line stroke="#B35047" y2="512" y1="0" x2="416" x1="416"></line><line stroke="#B35047" y2="512" y1="0" x2="448" x1="448"></line><line stroke="#B35047" y2="512" y1="0" x2="480" x1="480"></line><line stroke="#B35047" y2="32" y1="32" x2="512" x1="0"></line><line stroke="#B35047" y2="64" y1="64" x2="512" x1="0"></line><line stroke="#B35047" y2="96" y1="96" x2="512" x1="0"></line><line stroke="#B35047" y2="128" y1="128" x2="512" x1="0"></line><line stroke="#B35047" y2="160" y1="160" x2="512" x1="0"></line><line stroke="#B35047" y2="192" y1="192" x2="512" x1="0"></line><line stroke="#B35047" y2="224" y1="224" x2="512" x1="0"></line><line stroke="#B35047" y2="256" y1="256" x2="512" x1="0"></line><line stroke="#B35047" y2="288" y1="288" x2="512" x1="0"></line><line stroke="#B35047" y2="320" y1="320" x2="512" x1="0"></line><line stroke="#B35047" y2="352" y1="352" x2="512" x1="0"></line><line stroke="#B35047" y2="384" y1="384" x2="512" x1="0"></line><line stroke="#B35047" y2="416" y1="416" x2="512" x1="0"></line><line stroke="#B35047" y2="448" y1="448" x2="512" x1="0"></line><line stroke="#B35047" y2="480" y1="480" x2="512" x1="0"></line><rect stroke="#B35047" fill="none" height="512" width="512" y="0" x="0"></rect></g><path d="M 480.00,432.00l-96.00-80.00l0.00,80.00 c0.00,17.664-14.336,32.00-32.00,32.00L 32.00,464.00 c-17.664,0.00-32.00-14.336-32.00-32.00L0.00,160.00 c0.00-17.664, 14.336-32.00, 32.00-32.00 l 123.168,0.00 L 107.84,64.00L 16.00,64.00 C 7.168,64.00,0.00,56.848,0.00,48.00s 7.168-16.00, 16.00-16.00l 96.00,0.00 c 8.832,0.00, 16.00,7.152, 16.00,16.00l 65.152,80.00L 352.00,128.00 c 17.664,0.00, 32.00,14.336, 32.00,32.00l0.00,80.00 l 96.00-96.00c 17.664,0.00, 32.00,14.336, 32.00,32.00 l0.00,224.00 C 512.00,417.664, 499.664,432.00, 480.00,432.00z M 336.00,160.00l-96.00,0.00 c-8.848,0.00-16.00,7.152-16.00,16.00s 7.152,16.00, 16.00,16.00l 96.00,0.00 c 8.848,0.00, 16.00-7.152, 16.00-16.00S 344.848,160.00, 336.00,160.00z" ></path></svg>